# xmcd
#
# Track frame offsets: 
#        150
#        19593
#        34360
#        50398
#        65817
#        78422
#        90926
#        105183
#        114512
#        135299
#        151913
#        166421
#        176323
#        192091
#        204268
#
# Disc length: 2979 seconds
#
# Revision: 3
# Processed by: cddbd v1.5.2PL0 Copyright (c) Steve Scherf et al.
# Submitted via: ExactAudioCopy v0.99pb4
#
DISCID=ad0ba10f
DTITLE=Rolando Boldrin - Historias Cantadas E Faladas - Disc 2 - Modas
DTITLE=Caipiras
DYEAR=2008
DGENRE=MPB
TTITLE0=Moda Do Fim Do Mundo
TTITLE1=Cabocla Teresa - Part. Esp. Jair Rodrigues
TTITLE2=Goianinha
TTITLE3=Coração De Violeiro
TTITLE4=Amanheceu,  Peguei A Viola
TTITLE5=Destinos Iguais
TTITLE6=Ingratidão Da Conceição
TTITLE7=Moda Do Dente
TTITLE8=Vaca Estrela Boi Fubá
TTITLE9=Herói Sem Medalha
TTITLE10=Moda Do Jogo
TTITLE11=Morena Por Mal Dos Pecados
TTITLE12=Rancho Da Serra
TTITLE13=O Casamento Da Maria Branca
TTITLE14=Acorda,  Maria Bonita
EXTD=CD2 - MODAS CAIPIRAS
EXTT0=
EXTT1=
EXTT2=
EXTT3=
EXTT4=
EXTT5=
EXTT6=
EXTT7=
EXTT8=
EXTT9=
EXTT10=
EXTT11=
EXTT12=
EXTT13=
EXTT14=
PLAYORDER=
